<svg width="12" height="12" viewBox="0 0 12 12" fill="none" xmlns="http://www.w3.org/2000/svg">
<path d="M11.8829 0.151451C11.8407 0.105136 11.7896 0.0678476 11.7326 0.0418398C11.6757 0.015832 11.614 0.00164456 11.5514 0.000134679C11.4888 -0.0013752 11.4265 0.00982382 11.3684 0.0330551C11.3102 0.0562864 11.2574 0.0910676 11.2131 0.135297L10.8562 0.490393C10.813 0.533666 10.7887 0.59234 10.7887 0.653518C10.7887 0.714695 10.813 0.773369 10.8562 0.816642L11.1833 1.14318C11.2048 1.16472 11.2303 1.18182 11.2583 1.19348C11.2864 1.20515 11.3165 1.21115 11.3469 1.21115C11.3773 1.21115 11.4074 1.20515 11.4355 1.19348C11.4635 1.18182 11.489 1.16472 11.5105 1.14318L11.8583 0.797027C12.0343 0.621354 12.0508 0.335201 11.8829 0.151451Z" fill="white"/>
<path d="M10.1348 1.21155L4.92751 6.40963C4.89593 6.44107 4.87299 6.48011 4.86087 6.52299L4.62001 7.2404C4.61424 7.25986 4.61383 7.28052 4.61882 7.3002C4.62382 7.31988 4.63403 7.33785 4.64839 7.3522C4.66275 7.36656 4.68071 7.37678 4.70039 7.38177C4.72007 7.38677 4.74073 7.38636 4.7602 7.38059L5.47703 7.13972C5.51991 7.12761 5.55895 7.10466 5.59039 7.07309L10.7885 1.86521C10.8366 1.8166 10.8635 1.75099 10.8635 1.68261C10.8635 1.61424 10.8366 1.54862 10.7885 1.50002L10.5014 1.21155C10.4528 1.16302 10.3869 1.13577 10.3181 1.13577C10.2494 1.13577 10.1835 1.16302 10.1348 1.21155V1.21155Z" fill="white"/>
<path d="M9.7598 4.20174L6.24375 7.72471C6.10785 7.86094 5.94083 7.96203 5.75711 8.01923L5.01 8.26933C4.83269 8.3194 4.64523 8.32129 4.46695 8.2748C4.28867 8.22831 4.12601 8.13513 3.99573 8.00485C3.86545 7.87457 3.77227 7.7119 3.72578 7.53362C3.67929 7.35534 3.68118 7.16789 3.73125 6.99058L3.98134 6.24347C4.03838 6.05981 4.13927 5.89279 4.27529 5.75683L7.79826 2.2402C7.83056 2.20794 7.85256 2.16683 7.86149 2.12207C7.87042 2.07731 7.86587 2.03091 7.84842 1.98873C7.83098 1.94655 7.80142 1.91049 7.76348 1.88511C7.72554 1.85974 7.68093 1.84618 7.63528 1.84616H1.61538C1.18696 1.84616 0.776078 2.01635 0.473135 2.3193C0.170192 2.62224 0 3.03312 0 3.46154V10.3846C0 10.813 0.170192 11.2239 0.473135 11.5269C0.776078 11.8298 1.18696 12 1.61538 12H8.53846C8.96688 12 9.37776 11.8298 9.6807 11.5269C9.98365 11.2239 10.1538 10.813 10.1538 10.3846V4.36472C10.1538 4.31907 10.1403 4.27446 10.1149 4.23652C10.0895 4.19858 10.0535 4.16902 10.0113 4.15158C9.96909 4.13413 9.92269 4.12958 9.87793 4.13851C9.83317 4.14744 9.79206 4.16944 9.7598 4.20174Z" fill="white"/>
</svg>
