<svg width="12" height="12" viewBox="0 0 12 12" fill="none" xmlns="http://www.w3.org/2000/svg">
<path d="M6 3.91304C5.57615 3.91304 5.16181 4.03544 4.80939 4.26476C4.45697 4.49408 4.18229 4.82001 4.02009 5.20136C3.85788 5.5827 3.81545 6.00232 3.89813 6.40715C3.98082 6.81198 4.18493 7.18383 4.48464 7.4757C4.78435 7.76757 5.1662 7.96633 5.58191 8.04686C5.99762 8.12738 6.42852 8.08605 6.82011 7.9281C7.2117 7.77014 7.54639 7.50265 7.78188 7.15945C8.01736 6.81625 8.14304 6.41276 8.14304 6C8.14135 5.44701 7.91502 4.91715 7.51349 4.52612C7.11195 4.1351 6.56785 3.91469 6 3.91304V3.91304ZM10.6268 6C10.6257 6.195 10.611 6.38971 10.5829 6.58278L11.8872 7.57722C11.944 7.6229 11.9823 7.68676 11.9952 7.75739C12.0081 7.82802 11.9948 7.90082 11.9577 7.96278L10.7238 10.0372C10.6863 10.0986 10.6277 10.1452 10.5585 10.1687C10.4892 10.1922 10.4136 10.1912 10.345 10.1658L8.8114 9.56583C8.49206 9.8053 8.14259 10.004 7.77149 10.1572L7.54219 11.7428C7.52935 11.8138 7.49159 11.8783 7.43535 11.9252C7.37912 11.9721 7.30789 11.9986 7.23386 12H4.76614C4.69345 11.9986 4.62339 11.9733 4.56739 11.9281C4.51139 11.883 4.47276 11.8207 4.45781 11.7514L4.22851 10.1658C3.85639 10.0144 3.50667 9.81537 3.1886 9.57391L1.65498 10.1739C1.58643 10.1993 1.51087 10.2004 1.44159 10.1769C1.37231 10.1534 1.31375 10.1069 1.2762 10.0456L0.0423408 7.97139C0.00520133 7.90943 -0.00810408 7.83663 0.0048023 7.766C0.0177087 7.69537 0.0559858 7.63151 0.112793 7.58583L1.4171 6.59139C1.38928 6.3954 1.37461 6.19785 1.37317 6C1.37429 5.805 1.38896 5.61029 1.4171 5.41722L0.112793 4.42278C0.0559858 4.3771 0.0177087 4.31324 0.0048023 4.24261C-0.00810408 4.17198 0.00520133 4.09918 0.0423408 4.03722L1.2762 1.96278C1.31371 1.90137 1.37225 1.85481 1.44153 1.83129C1.51082 1.80776 1.5864 1.80879 1.65498 1.83417L3.1886 2.43417C3.50794 2.1947 3.85741 1.99596 4.22851 1.84278L4.45781 0.257217C4.47065 0.186195 4.50841 0.121718 4.56465 0.0748029C4.62088 0.0278879 4.69211 0.0014475 4.76614 0H7.23386C7.30655 0.00137779 7.37661 0.0267108 7.43261 0.0718634C7.48861 0.117016 7.52724 0.179321 7.54219 0.248609L7.77149 1.83417C8.14408 1.98547 8.49426 2.18453 8.81274 2.42609L10.345 1.82609C10.4136 1.80068 10.4891 1.79961 10.5584 1.82309C10.6277 1.84656 10.6863 1.89307 10.7238 1.95443L11.9577 4.02887C11.9948 4.09083 12.0081 4.16363 11.9952 4.23426C11.9823 4.30489 11.944 4.36876 11.8872 4.41443L10.5829 5.40887C10.6107 5.60477 10.6254 5.80224 10.6268 6V6Z" fill="white"/>
</svg>
