<svg width="12" height="12" viewBox="0 0 12 12" fill="none" xmlns="http://www.w3.org/2000/svg">
<path d="M7.95097 3.34253C7.78558 3.34262 7.62533 3.40006 7.49754 3.50505C7.36974 3.61004 7.2823 3.7561 7.25012 3.91833C7.21793 4.08056 7.24299 4.24893 7.32103 4.39476C7.39907 4.54059 7.52525 4.65485 7.67809 4.71807C7.83092 4.78129 8.00095 4.78956 8.1592 4.74148C8.31745 4.6934 8.45414 4.59194 8.54596 4.45438C8.63779 4.31682 8.67909 4.15167 8.66281 3.98708C8.64653 3.82249 8.57369 3.66863 8.45669 3.55173C8.39034 3.48525 8.31151 3.43254 8.22472 3.39664C8.13793 3.36074 8.0449 3.34235 7.95097 3.34253V3.34253Z" fill="white"/>
<path d="M11.931 0.483692C11.9309 0.482893 11.9309 0.48208 11.931 0.481281C11.9084 0.38199 11.8584 0.291005 11.7868 0.218591C11.7152 0.146177 11.6248 0.0952159 11.5258 0.0714576C10.7276 -0.123276 9.47183 0.0843149 8.08031 0.641461C6.6778 1.20396 5.36369 2.03432 4.47547 2.92415C4.19077 3.20733 3.92628 3.51013 3.68395 3.83032C3.08582 3.80353 2.55894 3.88871 2.1151 4.08237C0.568484 4.763 0.126785 6.50488 0.00919502 7.22006C-0.00782057 7.32168 -0.00115807 7.42586 0.0286641 7.52448C0.0584862 7.6231 0.110664 7.71351 0.181135 7.78868C0.251607 7.86384 0.338473 7.92173 0.434972 7.95783C0.53147 7.99394 0.635 8.00729 0.737502 7.99685H0.740984L2.46385 7.80882C2.46599 7.83078 2.4684 7.85087 2.47028 7.86935C2.49241 8.07929 2.58603 8.27524 2.73546 8.42436L3.57627 9.2657C3.72516 9.41533 3.92107 9.50908 4.131 9.53115L4.18859 9.53731L4.00109 11.258C4.00109 11.258 4.00109 11.2602 4.00109 11.2615C3.99151 11.3542 4.00137 11.4478 4.03004 11.5365C4.05872 11.6251 4.10557 11.7068 4.16762 11.7763C4.22966 11.8458 4.30552 11.9016 4.39036 11.9401C4.47519 11.9787 4.56713 11.999 4.66029 12C4.69753 12 4.73471 11.997 4.77145 11.9909C5.49065 11.8752 7.23173 11.4388 7.91049 9.88392C8.10254 9.44302 8.18745 8.91829 8.16361 8.32123C8.48524 8.07943 8.78914 7.81491 9.07299 7.52971C9.96844 6.63881 10.8015 5.33541 11.3581 3.95326C11.9123 2.57754 12.121 1.31245 11.931 0.483692ZM9.06335 5.168C8.84326 5.38832 8.56276 5.53841 8.25735 5.59929C7.95194 5.66016 7.63534 5.62908 7.34759 5.50998C7.05985 5.39088 6.8139 5.18911 6.64085 4.9302C6.4678 4.67129 6.37543 4.36687 6.37543 4.05545C6.37543 3.74403 6.4678 3.43961 6.64085 3.1807C6.8139 2.92179 7.05985 2.72002 7.34759 2.60092C7.63534 2.48182 7.95194 2.45074 8.25735 2.51161C8.56276 2.57249 8.84326 2.72258 9.06335 2.9429C9.21087 3.0882 9.32802 3.26139 9.40798 3.45239C9.48794 3.64339 9.52912 3.84839 9.52912 4.05545C9.52912 4.26251 9.48794 4.46751 9.40798 4.65851C9.32802 4.84951 9.21087 5.0227 9.06335 5.168V5.168Z" fill="white"/>
<path d="M3.47983 9.49393C3.37618 9.48107 3.27141 9.50651 3.18519 9.56545C3.01402 9.6825 2.84206 9.79822 2.66849 9.91099C2.31733 10.1392 1.89732 9.73849 2.10598 9.37527L2.43143 8.81277C2.47796 8.74471 2.50387 8.66466 2.50605 8.58225C2.50823 8.49983 2.48659 8.41853 2.44373 8.3481C2.40087 8.27767 2.3386 8.2211 2.26439 8.18517C2.19019 8.14924 2.10719 8.13548 2.02536 8.14553C1.66415 8.19121 1.3284 8.35574 1.07098 8.61321C0.972943 8.71152 0.674817 9.00991 0.51437 10.147C0.4687 10.4736 0.439912 10.8023 0.428119 11.1319C0.426653 11.1891 0.436655 11.246 0.457536 11.2993C0.478416 11.3525 0.509752 11.4011 0.549696 11.4421C0.589639 11.483 0.637382 11.5156 0.690108 11.5378C0.742834 11.56 0.799476 11.5715 0.856693 11.5714H0.867407C1.19723 11.5598 1.52624 11.5312 1.85313 11.4857C2.99072 11.325 3.28912 11.0266 3.38715 10.9286C3.64582 10.6711 3.80995 10.3337 3.85296 9.97126C3.86673 9.85849 3.83516 9.74487 3.7652 9.65536C3.69523 9.56586 3.59259 9.50779 3.47983 9.49393Z" fill="white"/>
</svg>
