<svg width="12" height="12" viewBox="0 0 12 12" fill="none" xmlns="http://www.w3.org/2000/svg">
<path d="M0.43301 1.83362H10.7282V0.428439C10.7282 0.365048 10.7142 0.302445 10.687 0.245147C10.6599 0.187848 10.6204 0.137281 10.5714 0.0970934C10.5224 0.0569055 10.465 0.0280979 10.4035 0.0127485C10.342 -0.00260092 10.2779 -0.00410965 10.2157 0.00833093L0.362322 1.62772C0.288951 1.64232 0.220683 1.67589 0.164312 1.72507C0.107941 1.77425 0.0654326 1.83734 0.0410156 1.90806C0.165809 1.85872 0.298817 1.83346 0.43301 1.83362V1.83362Z" fill="white"/>
<path d="M11.5716 2.47623H0.432925C0.319304 2.47623 0.210337 2.52136 0.129995 2.6017C0.0496524 2.68205 0.0045166 2.79101 0.0045166 2.90464V10.616C0.0045166 10.7296 0.0496524 10.8386 0.129995 10.9189C0.210337 10.9993 0.319304 11.0444 0.432925 11.0444H11.5716C11.6852 11.0444 11.7941 10.9993 11.8745 10.9189C11.9548 10.8386 12 10.7296 12 10.616V2.90464C12 2.79101 11.9548 2.68205 11.8745 2.6017C11.7941 2.52136 11.6852 2.47623 11.5716 2.47623ZM9.01449 7.61713C8.84503 7.61713 8.67937 7.56688 8.53847 7.47273C8.39757 7.37859 8.28775 7.24477 8.22289 7.08821C8.15804 6.93164 8.14108 6.75937 8.17414 6.59316C8.2072 6.42695 8.2888 6.27428 8.40863 6.15445C8.52846 6.03463 8.68113 5.95302 8.84733 5.91996C9.01354 5.8869 9.18582 5.90387 9.34238 5.96872C9.49894 6.03357 9.63276 6.14339 9.72691 6.28429C9.82106 6.4252 9.87131 6.59085 9.87131 6.76032C9.87131 6.98756 9.78104 7.20549 9.62035 7.36618C9.45967 7.52686 9.24173 7.61713 9.01449 7.61713Z" fill="white"/>
<path d="M0 5.99721V2.15492C0 1.82478 0.153156 1.66011 0.412879 1.61941C1.35538 1.47134 3.32017 1.39182 3.32017 1.39182C3.32017 1.39182 3.09713 1.82022 2.58839 1.82022V2.47623C3.08374 2.47623 3.42727 3.10545 3.42727 3.10545L1.43249 5.36799L0 5.99721Z" fill="white"/>
</svg>
