<svg width="12" height="12" viewBox="0 0 12 12" fill="none" xmlns="http://www.w3.org/2000/svg">
<path d="M10.1539 1.38462V0.230769C10.1539 0.169565 10.1296 0.110868 10.0863 0.0675908C10.043 0.0243132 9.98432 0 9.92311 0H2.07696C2.01576 0 1.95706 0.0243132 1.91378 0.0675908C1.8705 0.110868 1.84619 0.169565 1.84619 0.230769V1.38462" fill="white"/>
<path d="M10.3846 1.84616H1.61538C1.18696 1.84616 0.776079 2.01635 0.473135 2.3193C0.170192 2.62224 0 3.03312 0 3.46155V9.46155C0 9.52275 0.0243132 9.58145 0.0675908 9.62472C0.110868 9.668 0.169565 9.69232 0.230769 9.69232H1.84615V11.7692C1.84615 11.8304 1.87047 11.8891 1.91374 11.9324C1.95702 11.9757 2.01572 12 2.07692 12H9.92308C9.98428 12 10.043 11.9757 10.0863 11.9324C10.1295 11.8891 10.1538 11.8304 10.1538 11.7692V9.69232H11.7692C11.8304 9.69232 11.8891 9.668 11.9324 9.62472C11.9757 9.58145 12 9.52275 12 9.46155V3.46155C12 3.03312 11.8298 2.62224 11.5269 2.3193C11.2239 2.01635 10.813 1.84616 10.3846 1.84616V1.84616ZM9 10.7308C9 10.7614 8.98784 10.7907 8.9662 10.8124C8.94457 10.834 8.91522 10.8462 8.88462 10.8462H3.11538C3.08478 10.8462 3.05543 10.834 3.0338 10.8124C3.01216 10.7907 3 10.7614 3 10.7308V6.34616C3 6.31556 3.01216 6.28621 3.0338 6.26457C3.05543 6.24293 3.08478 6.23078 3.11538 6.23078H8.88462C8.91522 6.23078 8.94457 6.24293 8.9662 6.26457C8.98784 6.28621 9 6.31556 9 6.34616V10.7308ZM9.98077 4.61308C9.83957 4.62443 9.69828 4.59219 9.57598 4.52072C9.45368 4.44924 9.35624 4.34196 9.29683 4.21337C9.23742 4.08477 9.21888 3.94104 9.24373 3.80158C9.26857 3.66212 9.3356 3.53363 9.43577 3.43347C9.53593 3.3333 9.66442 3.26627 9.80388 3.24143C9.94334 3.21658 10.0871 3.23512 10.2157 3.29453C10.3443 3.35394 10.4515 3.45137 10.523 3.57368C10.5945 3.69598 10.6267 3.83727 10.6154 3.97847C10.6022 4.14238 10.5311 4.29626 10.4148 4.41254C10.2986 4.52882 10.1447 4.59991 9.98077 4.61308V4.61308Z" fill="white"/>
</svg>
