<svg width="12" height="12" viewBox="0 0 12 12" fill="none" xmlns="http://www.w3.org/2000/svg">
<path d="M6 0C2.69163 0 0 2.69163 0 6C0 9.30837 2.69163 12 6 12C9.30837 12 12 9.30837 12 6C12 2.69163 9.30837 0 6 0ZM8.30769 6.46154H6.46154V8.30769C6.46154 8.4301 6.41291 8.54749 6.32636 8.63405C6.2398 8.7206 6.12241 8.76923 6 8.76923C5.87759 8.76923 5.7602 8.7206 5.67364 8.63405C5.58709 8.54749 5.53846 8.4301 5.53846 8.30769V6.46154H3.69231C3.5699 6.46154 3.45251 6.41291 3.36595 6.32636C3.2794 6.2398 3.23077 6.12241 3.23077 6C3.23077 5.87759 3.2794 5.7602 3.36595 5.67364C3.45251 5.58709 3.5699 5.53846 3.69231 5.53846H5.53846V3.69231C5.53846 3.5699 5.58709 3.45251 5.67364 3.36595C5.7602 3.2794 5.87759 3.23077 6 3.23077C6.12241 3.23077 6.2398 3.2794 6.32636 3.36595C6.41291 3.45251 6.46154 3.5699 6.46154 3.69231V5.53846H8.30769C8.4301 5.53846 8.54749 5.58709 8.63405 5.67364C8.7206 5.7602 8.76923 5.87759 8.76923 6C8.76923 6.12241 8.7206 6.2398 8.63405 6.32636C8.54749 6.41291 8.4301 6.46154 8.30769 6.46154Z" fill="#45046A"/>
</svg>
