<svg width="12" height="12" viewBox="0 0 12 12" fill="none" xmlns="http://www.w3.org/2000/svg">
<path d="M6 0C2.68644 0 0 2.68644 0 6C0 9.30837 2.69192 12 6 12C9.31327 12 12 9.31327 12 6C12 2.69163 9.30837 0 6 0ZM9.11538 6.92308H5.65385C5.62324 6.92308 5.5939 6.91092 5.57226 6.88928C5.55062 6.86764 5.53846 6.83829 5.53846 6.80769V1.96154C5.53846 1.93094 5.55062 1.90159 5.57226 1.87995C5.5939 1.85831 5.62324 1.84615 5.65385 1.84615H6.34615C6.37676 1.84615 6.4061 1.85831 6.42774 1.87995C6.44938 1.90159 6.46154 1.93094 6.46154 1.96154V6H9.11538C9.14599 6 9.17534 6.01216 9.19697 6.0338C9.21861 6.05543 9.23077 6.08478 9.23077 6.11538V6.80769C9.23077 6.83829 9.21861 6.86764 9.19697 6.88928C9.17534 6.91092 9.14599 6.92308 9.11538 6.92308Z" fill="#45046A"/>
</svg>
