<svg width="11" height="12" viewBox="0 0 11 12" fill="none" xmlns="http://www.w3.org/2000/svg">
<path d="M10.2737 1.71429H7.28571V0.428571C7.28571 0.314907 7.24056 0.205898 7.16019 0.125526C7.07982 0.0451529 6.97081 0 6.85714 0H3.42857C3.31491 0 3.2059 0.0451529 3.12553 0.125526C3.04515 0.205898 3 0.314907 3 0.428571V1.71429H0.0120535L0 2.78571H0.883929L1.42205 11.1964C1.43567 11.4139 1.53163 11.6181 1.69041 11.7674C1.84918 11.9166 2.05886 11.9998 2.27679 12H8.00893C8.22673 12 8.43636 11.917 8.59521 11.768C8.75407 11.619 8.85024 11.4151 8.8642 11.1978L9.40179 2.78571H10.2857L10.2737 1.71429ZM3 10.2857L2.75893 3.42857H3.64286L3.88393 10.2857H3ZM5.57143 10.2857H4.71429V3.42857H5.57143V10.2857ZM6.21429 1.71429H4.07143V0.964286C4.07143 0.93587 4.08272 0.908617 4.10281 0.888524C4.1229 0.868431 4.15016 0.857143 4.17857 0.857143H6.10714C6.13556 0.857143 6.16281 0.868431 6.1829 0.888524C6.203 0.908617 6.21429 0.93587 6.21429 0.964286V1.71429ZM7.28571 10.2857H6.40179L6.64286 3.42857H7.52679L7.28571 10.2857Z" fill="#45046A"/>
</svg>
