<svg width="19" height="25" viewBox="0 0 19 25" fill="none" xmlns="http://www.w3.org/2000/svg">
<path d="M18.3523 9.16667H14.6818V5C14.6818 3.67392 14.1359 2.40215 13.1641 1.46447C12.1923 0.526784 10.8743 0 9.5 0C8.1257 0 6.80768 0.526784 5.8359 1.46447C4.86412 2.40215 4.31818 3.67392 4.31818 5V9.16667H0.647727C0.475939 9.16667 0.311187 9.23251 0.189715 9.34972C0.0682424 9.46694 0 9.62591 0 9.79167V24.375C0 24.5408 0.0682424 24.6997 0.189715 24.8169C0.311187 24.9342 0.475939 25 0.647727 25H18.3523C18.5241 25 18.6888 24.9342 18.8103 24.8169C18.9318 24.6997 19 24.5408 19 24.375V9.79167C19 9.62591 18.9318 9.46694 18.8103 9.34972C18.6888 9.23251 18.5241 9.16667 18.3523 9.16667ZM12.6307 9.16667H6.36932V4.96094C6.36932 4.15976 6.69916 3.3914 7.28627 2.82489C7.87339 2.25837 8.66969 1.9401 9.5 1.9401C10.3303 1.9401 11.1266 2.25837 11.7137 2.82489C12.3008 3.3914 12.6307 4.15976 12.6307 4.96094V9.16667Z" fill="#45046A"/>
</svg>
