<svg width="12" height="12" viewBox="0 0 12 12" fill="none" xmlns="http://www.w3.org/2000/svg">
<path d="M6 12C2.69163 12 0 9.30377 0 5.98993C0 4.18848 0.786058 2.49954 2.15654 1.35868C2.22053 1.30509 2.29446 1.26464 2.3741 1.23967C2.45375 1.21469 2.53753 1.20567 2.62067 1.21312C2.7038 1.22057 2.78465 1.24435 2.85858 1.2831C2.93251 1.32184 2.99807 1.37479 3.05151 1.4389C3.10494 1.50302 3.14521 1.57705 3.16999 1.65675C3.19478 1.73646 3.2036 1.82026 3.19595 1.90338C3.1883 1.98649 3.16432 2.06728 3.1254 2.14112C3.08648 2.21496 3.03338 2.28039 2.96913 2.33368C1.88885 3.23368 1.26923 4.56637 1.26923 5.98993C1.26923 8.60397 3.39144 10.7308 6 10.7308C8.60856 10.7308 10.7308 8.60397 10.7308 5.98993C10.7307 5.29132 10.5759 4.60139 10.2775 3.96972C9.97909 3.33805 9.54448 2.78031 9.0049 2.33656C8.93807 2.28438 8.88237 2.21934 8.84109 2.14527C8.79981 2.0712 8.7738 1.98962 8.76458 1.90533C8.75536 1.82104 8.76313 1.73575 8.78742 1.65452C8.81171 1.57328 8.85204 1.49773 8.90602 1.43234C8.96 1.36695 9.02654 1.31304 9.1017 1.27379C9.17686 1.23455 9.25913 1.21076 9.34364 1.20384C9.42815 1.19692 9.51319 1.207 9.59373 1.2335C9.67428 1.25999 9.7487 1.30236 9.8126 1.3581C10.4966 1.9207 11.0475 2.62784 11.4258 3.4287C11.804 4.22956 12.0001 5.10425 12 5.98993C12 9.30377 9.30837 12 6 12Z" fill="#45046A"/>
<path d="M5.99997 6.46154C5.83166 6.46154 5.67024 6.39468 5.55123 6.27566C5.43222 6.15665 5.36536 5.99523 5.36536 5.82692V0.634615C5.36536 0.466305 5.43222 0.304888 5.55123 0.185875C5.67024 0.066861 5.83166 0 5.99997 0C6.16828 0 6.3297 0.066861 6.44871 0.185875C6.56773 0.304888 6.63459 0.466305 6.63459 0.634615V5.82692C6.63459 5.99523 6.56773 6.15665 6.44871 6.27566C6.3297 6.39468 6.16828 6.46154 5.99997 6.46154Z" fill="#45046A"/>
</svg>
