<svg width="13" height="11" viewBox="0 0 13 11" fill="none" xmlns="http://www.w3.org/2000/svg">
<path d="M0 8.58929C0 9.02027 0.171205 9.4336 0.475951 9.73834C0.780698 10.0431 1.19402 10.2143 1.625 10.2143H11.375C11.806 10.2143 12.2193 10.0431 12.524 9.73834C12.8288 9.4336 13 9.02027 13 8.58929V4.12054H0V8.58929ZM1.91518 6.38394C1.91518 6.15306 2.0069 5.93163 2.17015 5.76838C2.33341 5.60512 2.55483 5.5134 2.78571 5.5134H4.17857C4.40945 5.5134 4.63088 5.60512 4.79413 5.76838C4.95739 5.93163 5.04911 6.15306 5.04911 6.38394V6.96429C5.04911 7.19517 4.95739 7.4166 4.79413 7.57986C4.63088 7.74311 4.40945 7.83483 4.17857 7.83483H2.78571C2.55483 7.83483 2.33341 7.74311 2.17015 7.57986C2.0069 7.4166 1.91518 7.19517 1.91518 6.96429V6.38394Z" fill="#45046A"/>
<path d="M11.375 0H1.625C1.19402 0 0.780698 0.171205 0.475951 0.475952C0.171205 0.780698 0 1.19402 0 1.625V2.37946H13V1.625C13 1.19402 12.8288 0.780698 12.524 0.475952C12.2193 0.171205 11.806 0 11.375 0V0Z" fill="#45046A"/>
</svg>
