<svg width="13" height="12" viewBox="0 0 13 12" fill="none" xmlns="http://www.w3.org/2000/svg">
<path d="M0.915221 8.70534C0.832494 8.70538 0.751523 8.68148 0.682082 8.63651C0.612641 8.59155 0.557697 8.52745 0.523882 8.45195C0.114723 7.53815 -0.0592573 6.53648 0.0177961 5.53823C0.0948494 4.53998 0.420486 3.57688 0.965033 2.7367C1.50958 1.89651 2.25572 1.20595 3.13547 0.72795C4.01522 0.249946 5.0006 -0.00030481 6.00182 2.78622e-07C6.11548 2.78622e-07 6.22449 0.0451531 6.30486 0.125526C6.38524 0.205898 6.43039 0.314907 6.43039 0.428571V5.99999C6.4304 6.08275 6.40646 6.16374 6.36145 6.23318C6.31643 6.30263 6.25228 6.35755 6.17673 6.39133L1.09013 8.66677C1.03521 8.69186 0.975596 8.705 0.915221 8.70534V8.70534Z" fill="#45046A"/>
<path d="M7.5444 0.969119C7.51332 0.962817 7.48124 0.96349 7.45045 0.971088C7.41967 0.978686 7.39096 0.993021 7.36639 1.01306C7.34181 1.0331 7.32199 1.05834 7.30836 1.08696C7.29472 1.11558 7.2876 1.14688 7.28752 1.17858V6C7.28731 6.24814 7.2154 6.49094 7.08044 6.69917C6.94548 6.90741 6.75323 7.07221 6.52681 7.17375L1.90709 9.24107C1.87845 9.25385 1.85297 9.27276 1.83244 9.29647C1.81192 9.32017 1.79684 9.34809 1.78828 9.37826C1.77973 9.40843 1.7779 9.44011 1.78292 9.47106C1.78794 9.50202 1.7997 9.53149 1.81735 9.5574C2.1709 10.0774 2.60976 10.5339 3.11539 10.9077C4.07337 11.6203 5.2364 12.0035 6.43038 12C9.50243 12 12.0018 9.50062 12.0018 6.42857C12.0018 3.73795 10.0845 1.48662 7.5444 0.969119Z" fill="#45046A"/>
</svg>
