<svg width="9" height="12" viewBox="0 0 9 12" fill="none" xmlns="http://www.w3.org/2000/svg">
<path d="M8.1421 11.9989C8.03729 11.9992 7.936 11.9611 7.8574 11.8918L4.28532 8.71553L0.713239 11.8918C0.651423 11.9467 0.575027 11.9826 0.493268 11.9951C0.411509 12.0076 0.327882 11.9961 0.252476 11.9622C0.17707 11.9282 0.113109 11.8731 0.0683092 11.8036C0.0235095 11.7341 -0.000213887 11.6531 1.45307e-06 11.5704V1.71413C0.000497707 1.25966 0.181252 0.823958 0.502606 0.502604C0.823959 0.181251 1.25967 0.000496254 1.71413 0H6.85651C7.31097 0.000496254 7.74668 0.181251 8.06803 0.502604C8.38938 0.823958 8.57014 1.25966 8.57063 1.71413V11.5704C8.57063 11.684 8.52548 11.793 8.44512 11.8734C8.36475 11.9537 8.25575 11.9989 8.1421 11.9989Z" fill="#45046A"/>
</svg>
