<svg width="12" height="9" viewBox="0 0 12 9" fill="none" xmlns="http://www.w3.org/2000/svg">
<path d="M7.99988 4.39998C7.48588 4.39998 6.98889 4.17048 6.59989 3.75398C6.22164 3.34773 5.99064 2.80599 5.94989 2.22899C5.90639 1.61349 6.09414 1.04749 6.47839 0.634997C6.86264 0.222499 7.39988 0 7.99988 0C8.59563 0 9.13438 0.226499 9.51737 0.637997C9.90412 1.05349 10.0924 1.61849 10.0489 2.22874C10.0071 2.80649 9.77637 3.34798 9.39887 3.75373C9.01088 4.17048 8.51413 4.39998 7.99988 4.39998Z" fill="#45046A"/>
<path d="M11.2956 8.79996H4.70438C4.59841 8.80053 4.49372 8.77678 4.39837 8.73053C4.30302 8.68429 4.21955 8.61678 4.15438 8.53321C4.08526 8.44262 4.03752 8.33756 4.01475 8.22591C3.99198 8.11426 3.99476 7.9989 4.02288 7.88847C4.23338 7.04322 4.75488 6.34223 5.53088 5.86148C6.21962 5.43498 7.09637 5.19998 7.99986 5.19998C8.92111 5.19998 9.77486 5.42498 10.4676 5.85123C11.2453 6.32948 11.7676 7.03447 11.9771 7.88997C12.0049 8.00048 12.0073 8.11583 11.9843 8.22743C11.9613 8.33903 11.9134 8.44398 11.8441 8.53447C11.779 8.61765 11.6957 8.68482 11.6006 8.73084C11.5056 8.77686 11.4012 8.80051 11.2956 8.79996V8.79996Z" fill="#45046A"/>
<path d="M3.27488 4.49997C2.39514 4.49997 1.62164 3.68197 1.54989 2.67673C1.51439 2.16173 1.67489 1.68548 1.99989 1.33624C2.32139 0.990487 2.77488 0.799988 3.27488 0.799988C3.77488 0.799988 4.22488 0.991487 4.54812 1.33924C4.87562 1.69123 5.03562 2.16648 4.99812 2.67723C4.92637 3.68222 4.15313 4.49997 3.27488 4.49997Z" fill="#45046A"/>
<path d="M4.91645 5.28621C4.4767 5.07121 3.90595 4.96371 3.2752 4.96371C2.53871 4.96371 1.82346 5.15571 1.26097 5.50421C0.623219 5.89996 0.194221 6.47621 0.0209715 7.17195C-0.00438213 7.27203 -0.00678014 7.37654 0.0139568 7.47767C0.0346938 7.5788 0.078029 7.67393 0.140721 7.75595C0.200207 7.83232 0.276416 7.89402 0.363486 7.93632C0.450556 7.97862 0.546168 8.00039 0.642968 7.99995H3.41795C3.46479 7.99994 3.51014 7.9835 3.5461 7.95348C3.58205 7.92347 3.60633 7.88178 3.6147 7.8357C3.61745 7.81995 3.62095 7.8042 3.62495 7.7887C3.83695 6.9372 4.3337 6.21771 5.0677 5.69321C5.09469 5.67375 5.11641 5.64786 5.13087 5.61789C5.14533 5.58792 5.15209 5.55481 5.15053 5.52157C5.14896 5.48833 5.13913 5.456 5.12191 5.42752C5.1047 5.39904 5.08065 5.3753 5.05195 5.35846C5.0127 5.33546 4.9677 5.31121 4.91645 5.28621Z" fill="#45046A"/>
</svg>
