<svg width="23" height="25" viewBox="0 0 23 25" fill="none" xmlns="http://www.w3.org/2000/svg">
<path d="M11.5 12.5C12.7247 12.5 13.9219 12.1334 14.9403 11.4467C15.9586 10.7599 16.7523 9.78381 17.2209 8.64177C17.6896 7.49973 17.8123 6.24307 17.5733 5.03069C17.3344 3.81831 16.7446 2.70466 15.8786 1.83059C15.0126 0.956507 13.9092 0.361252 12.7081 0.120095C11.5069 -0.121063 10.2618 0.00270802 9.13031 0.475756C7.99881 0.948803 7.0317 1.74988 6.35128 2.77769C5.67086 3.8055 5.30769 5.01387 5.30769 6.25C5.30769 7.9076 5.96009 9.49732 7.12138 10.6694C8.28266 11.8415 9.8577 12.5 11.5 12.5ZM11.5 14.2857C7.66187 14.2857 0 16.6786 0 21.4286V25H23V21.4286C23 16.6786 15.3381 14.2857 11.5 14.2857Z" fill="#45046A"/>
</svg>
