<svg width="12" height="10" viewBox="0 0 12 10" fill="none" xmlns="http://www.w3.org/2000/svg">
<path d="M0.00204867 3.13498L0.716543 8.98169C0.736597 9.15223 0.818637 9.30945 0.947058 9.42344C1.07548 9.53744 1.24132 9.60025 1.41304 9.59993H10.588C10.7597 9.60025 10.9255 9.53744 11.0539 9.42344C11.1824 9.30945 11.2644 9.15223 11.2845 8.98169L11.998 3.13498C12.0029 3.09292 11.9989 3.05029 11.9862 3.00989C11.9734 2.96949 11.9523 2.93224 11.9241 2.90059C11.896 2.86895 11.8615 2.84362 11.8228 2.82628C11.7842 2.80894 11.7423 2.79998 11.7 2.79999H0.300046C0.257692 2.79998 0.215816 2.80894 0.177175 2.82628C0.138533 2.84362 0.104001 2.86895 0.0758504 2.90059C0.0477001 2.93224 0.0265697 2.96949 0.0138494 3.00989C0.00112915 3.05029 -0.00289265 3.09292 0.00204867 3.13498V3.13498Z" fill="#45046A"/>
<path d="M11.2 1.49999C11.2 1.31434 11.1262 1.13629 10.9949 1.00502C10.8637 0.873743 10.6856 0.799993 10.5 0.799993H5.72101L4.52102 0H1.50004C1.31439 0 1.13635 0.0737492 1.00507 0.205024C0.873798 0.336298 0.800049 0.514344 0.800049 0.699994V1.99998H11.2V1.49999Z" fill="#45046A"/>
</svg>
